                            <svg id="logo" width="300" height="150" viewBox="0 0 731 50" fill="none"
                                xmlns="http://www.w3.org/2000/svg">
                                <!-- <mask id="path-1-outside-1" maskUnits="userSpaceOnUse" x="0.936005" y="0.0480042" width="730" height="109" fill="black">
                                    <rect fill="white" x="0.936005" y="0.0480042" width="730" height="109"/>
                                    <path d="M39.072 4.488C49.632 4.488 58.896 6.552 66.864 10.68C74.928 14.808 81.12 20.712 85.44 28.392C89.856 35.976 92.064 44.808 92.064 54.888C92.064 64.968 89.856 73.8 85.44 81.384C81.12 88.872 74.928 94.68 66.864 98.808C58.896 102.936 49.632 105 39.072 105H3.936V4.488H39.072ZM38.352 87.864C48.912 87.864 57.072 84.984 62.832 79.224C68.592 73.464 71.472 65.352 71.472 54.888C71.472 44.424 68.592 36.264 62.832 30.408C57.072 24.456 48.912 21.48 38.352 21.48H24.096V87.864H38.352Z"/>
                                    <path d="M127.315 4.488V105H107.155V4.488H127.315Z"/>
                                    <path d="M233.201 105H213.041L167.393 36.024V105H147.233V4.34399H167.393L213.041 73.464V4.34399H233.201V105Z"/>
                                    <path d="M299.78 106.008C290.372 106.008 281.731 103.8 273.859 99.384C265.987 94.968 259.747 88.872 255.139 81.096C250.531 73.224 248.227 64.344 248.227 54.456C248.227 44.664 250.531 35.88 255.139 28.104C259.747 20.232 265.987 14.088 273.859 9.67199C281.731 5.256 290.372 3.048 299.78 3.048C309.284 3.048 317.923 5.256 325.699 9.67199C333.571 14.088 339.764 20.232 344.276 28.104C348.884 35.88 351.188 44.664 351.188 54.456C351.188 64.344 348.884 73.224 344.276 81.096C339.764 88.872 333.571 94.968 325.699 99.384C317.827 103.8 309.188 106.008 299.78 106.008ZM299.78 88.008C305.828 88.008 311.155 86.664 315.763 83.976C320.371 81.192 323.972 77.256 326.564 72.168C329.156 67.08 330.452 61.176 330.452 54.456C330.452 47.736 329.156 41.88 326.564 36.888C323.972 31.8 320.371 27.912 315.763 25.224C311.155 22.536 305.828 21.192 299.78 21.192C293.732 21.192 288.355 22.536 283.651 25.224C279.043 27.912 275.444 31.8 272.852 36.888C270.26 41.88 268.964 47.736 268.964 54.456C268.964 61.176 270.26 67.08 272.852 72.168C275.444 77.256 279.043 81.192 283.651 83.976C288.355 86.664 293.732 88.008 299.78 88.008Z"/>
                                    <path d="M361.29 54.6C361.29 44.712 363.498 35.88 367.914 28.104C372.426 20.232 378.522 14.136 386.202 9.816C393.978 5.4 402.666 3.192 412.266 3.192C423.498 3.192 433.338 6.072 441.786 11.832C450.234 17.592 456.138 25.56 459.498 35.736H436.314C434.01 30.936 430.746 27.336 426.522 24.936C422.394 22.536 417.594 21.336 412.122 21.336C406.266 21.336 401.034 22.728 396.426 25.512C391.914 28.2 388.362 32.04 385.77 37.032C383.274 42.024 382.026 47.88 382.026 54.6C382.026 61.224 383.274 67.08 385.77 72.168C388.362 77.16 391.914 81.048 396.426 83.832C401.034 86.52 406.266 87.864 412.122 87.864C417.594 87.864 422.394 86.664 426.522 84.264C430.746 81.768 434.01 78.12 436.314 73.32H459.498C456.138 83.592 450.234 91.608 441.786 97.368C433.434 103.032 423.594 105.864 412.266 105.864C402.666 105.864 393.978 103.704 386.202 99.384C378.522 94.968 372.426 88.872 367.914 81.096C363.498 73.32 361.29 64.488 361.29 54.6Z"/>
                                    <path d="M496.877 20.76V45.96H530.717V61.944H496.877V88.584H535.037V105H476.717V4.34399H535.037V20.76H496.877Z"/>
                                    <path d="M639.326 105H619.166L573.518 36.024V105H553.358V4.34399H573.518L619.166 73.464V4.34399H639.326V105Z"/>
                                    <path d="M727.649 4.488V20.76H700.865V105H680.705V20.76H653.921V4.488H727.649Z"/>
                                    </mask> -->
                                <path
                                    d="M39.072 4.488C49.632 4.488 58.896 6.552 66.864 10.68C74.928 14.808 81.12 20.712 85.44 28.392C89.856 35.976 92.064 44.808 92.064 54.888C92.064 64.968 89.856 73.8 85.44 81.384C81.12 88.872 74.928 94.68 66.864 98.808C58.896 102.936 49.632 105 39.072 105H3.936V4.488H39.072ZM38.352 87.864C48.912 87.864 57.072 84.984 62.832 79.224C68.592 73.464 71.472 65.352 71.472 54.888C71.472 44.424 68.592 36.264 62.832 30.408C57.072 24.456 48.912 21.48 38.352 21.48H24.096V87.864H38.352Z"
                                    stroke="#0787EA" stroke-width="6" mask="url(#path-1-outside-1)" />
                                <path d="M127.315 4.488V105H107.155V4.488H127.315Z" stroke="#0787EA" stroke-width="6"
                                    mask="url(#path-1-outside-1)" />
                                <path
                                    d="M233.201 105H213.041L167.393 36.024V105H147.233V4.34399H167.393L213.041 73.464V4.34399H233.201V105Z"
                                    stroke="#0787EA" stroke-width="6" mask="url(#path-1-outside-1)" />
                                <path
                                    d="M299.78 106.008C290.372 106.008 281.731 103.8 273.859 99.384C265.987 94.968 259.747 88.872 255.139 81.096C250.531 73.224 248.227 64.344 248.227 54.456C248.227 44.664 250.531 35.88 255.139 28.104C259.747 20.232 265.987 14.088 273.859 9.67199C281.731 5.256 290.372 3.048 299.78 3.048C309.284 3.048 317.923 5.256 325.699 9.67199C333.571 14.088 339.764 20.232 344.276 28.104C348.884 35.88 351.188 44.664 351.188 54.456C351.188 64.344 348.884 73.224 344.276 81.096C339.764 88.872 333.571 94.968 325.699 99.384C317.827 103.8 309.188 106.008 299.78 106.008ZM299.78 88.008C305.828 88.008 311.155 86.664 315.763 83.976C320.371 81.192 323.972 77.256 326.564 72.168C329.156 67.08 330.452 61.176 330.452 54.456C330.452 47.736 329.156 41.88 326.564 36.888C323.972 31.8 320.371 27.912 315.763 25.224C311.155 22.536 305.828 21.192 299.78 21.192C293.732 21.192 288.355 22.536 283.651 25.224C279.043 27.912 275.444 31.8 272.852 36.888C270.26 41.88 268.964 47.736 268.964 54.456C268.964 61.176 270.26 67.08 272.852 72.168C275.444 77.256 279.043 81.192 283.651 83.976C288.355 86.664 293.732 88.008 299.78 88.008Z"
                                    stroke="#0787EA" stroke-width="6" mask="url(#path-1-outside-1)" />
                                <path
                                    d="M361.29 54.6C361.29 44.712 363.498 35.88 367.914 28.104C372.426 20.232 378.522 14.136 386.202 9.816C393.978 5.4 402.666 3.192 412.266 3.192C423.498 3.192 433.338 6.072 441.786 11.832C450.234 17.592 456.138 25.56 459.498 35.736H436.314C434.01 30.936 430.746 27.336 426.522 24.936C422.394 22.536 417.594 21.336 412.122 21.336C406.266 21.336 401.034 22.728 396.426 25.512C391.914 28.2 388.362 32.04 385.77 37.032C383.274 42.024 382.026 47.88 382.026 54.6C382.026 61.224 383.274 67.08 385.77 72.168C388.362 77.16 391.914 81.048 396.426 83.832C401.034 86.52 406.266 87.864 412.122 87.864C417.594 87.864 422.394 86.664 426.522 84.264C430.746 81.768 434.01 78.12 436.314 73.32H459.498C456.138 83.592 450.234 91.608 441.786 97.368C433.434 103.032 423.594 105.864 412.266 105.864C402.666 105.864 393.978 103.704 386.202 99.384C378.522 94.968 372.426 88.872 367.914 81.096C363.498 73.32 361.29 64.488 361.29 54.6Z"
                                    stroke="#0787EA" stroke-width="6" mask="url(#path-1-outside-1)" />
                                <path
                                    d="M496.877 20.76V45.96H530.717V61.944H496.877V88.584H535.037V105H476.717V4.34399H535.037V20.76H496.877Z"
                                    stroke="#0787EA" stroke-width="6" mask="url(#path-1-outside-1)" />
                                <path
                                    d="M639.326 105H619.166L573.518 36.024V105H553.358V4.34399H573.518L619.166 73.464V4.34399H639.326V105Z"
                                    stroke="#0787EA" stroke-width="6" mask="url(#path-1-outside-1)" />
                                <path d="M727.649 4.488V20.76H700.865V105H680.705V20.76H653.921V4.488H727.649Z"
                                    stroke="#0787EA" stroke-width="6" mask="url(#path-1-outside-1)" />
                            </svg>